<svg viewBox="226.73749999999995 78.59489051094897 613.525 506.2043795620438" fill="none" xmlns="http://www.w3.org/2000/svg" xmlns:xlink="http://www.w3.org/1999/xlink" xmlns:blush="http://design.blush" overflow="visible" width="613.525px" height="506.2043795620438px"><g id="Master/Stickers/Confetti" blush:has-customizable-colors="true" blush:viewBox="224.06999999999994 82.17836257309943 618.86 506.9444444444447" blush:i="0"><g id="Group 52" blush:i="0.0"><path id="Fill 1" fill-rule="evenodd" clip-rule="evenodd" d="M625.87 520.727C622.233 522.671 617.588 522.115 613.625 522.437C609.758 522.749 605.736 523.56 602.472 525.796C598.558 528.479 596.441 532.735 596.472 537.494C596.497 541.515 598.212 545.773 598.568 549.373C598.705 550.763 598.661 552.108 598.382 553.274C598.203 554.023 598.044 554.5 597.794 554.953C597.393 555.678 597.289 555.739 597.036 555.908C596.542 556.236 596.532 556.254 595.905 556.236C594.932 556.206 594.021 556.048 593.06 555.91C590.605 555.558 588.312 555.592 586.016 556.626C582.74 558.103 580.791 561.169 579.602 564.458C578.325 567.989 577.359 573.242 578.522 576.901C579.434 579.776 582.313 581.625 585.286 580.805C588.059 580.041 589.805 577.233 588.981 574.421C587.521 569.442 586.223 572.121 586.25 571.779C586.276 571.446 586.308 571.113 586.35 570.784C586.492 569.637 586.833 568.09 587.266 566.844C588.047 564.599 588.922 563.551 591.34 563.777C595.238 564.144 598.705 564.824 602.029 562.199C604.565 560.197 605.923 557.117 606.393 553.963C606.915 550.441 606.391 547.162 605.575 543.724C604.857 540.702 603.382 536.342 605.641 533.611C607.226 531.694 610.156 530.951 612.496 530.632C616.614 530.067 620.775 530.406 624.874 529.542C629.116 528.652 632.868 526.346 635.169 522.592C637.345 519.044 637.743 514.489 635.482 510.888C632.728 506.501 625.774 510.552 628.546 514.971C629.686 516.787 628.173 519.497 625.87 520.727Z" fill="#ED6389" blush:i="0.0.0"/><path id="Fill 3" fill-rule="evenodd" clip-rule="evenodd" d="M465.261 319.045C464.197 320.476 462.713 321.344 461.166 322.159C459.298 323.144 457.273 324.001 455.17 324.663C456.117 323.016 457.352 321.523 458.927 320.276C460.091 319.351 461.476 318.591 462.895 318.146C463.574 317.933 464.297 317.706 465.006 317.674C465.12 317.669 465.5 317.644 465.712 317.64C465.819 317.624 465.912 317.635 466 317.655C465.969 317.73 465.941 317.79 465.94 317.791C465.799 318.217 465.541 318.668 465.261 319.045M466.027 317.222C466.129 317.233 466.093 317.396 466.041 317.548C466.034 317.541 466.03 317.537 466.023 317.53C466.006 317.538 466.019 317.222 466.027 317.222M441.156 293.723C443.442 292.81 446.676 292.633 448.138 295.041C449.467 297.229 446.791 298.877 444.94 299.807C441.63 301.471 437.527 302.189 433.862 302.473C432.987 302.539 432.115 302.56 431.243 302.57C431.613 301.991 432.002 301.429 432.418 300.898C434.646 298.049 437.747 295.087 441.156 293.723M462.767 309.953C454.202 311.478 448.499 318.207 446.056 326.055C443.535 325.994 441.05 325.525 438.715 324.515C433.208 322.131 428.505 316.745 428.594 310.525C430.358 310.615 432.122 310.604 433.862 310.468C439.21 310.051 444.978 308.999 449.703 306.327C454.099 303.841 457.505 299.18 456.24 293.915C454.996 288.742 449.808 285.25 444.648 285.076C439.046 284.887 433.963 288.175 429.997 291.818C427.033 294.54 424.447 297.841 422.736 301.52C422.345 301.415 421.947 301.342 421.558 301.222C414.545 299.023 408.263 293.476 406.411 286.205C404.652 279.284 407.681 271.851 413.942 268.43C418.458 265.963 414.427 259.055 409.905 261.525C401.005 266.39 396.756 276.574 398.318 286.426C399.903 296.434 407.898 304.36 416.999 308.055C418.199 308.54 419.436 308.943 420.691 309.286C420.15 317.819 425.146 325.902 432.581 330.315C436.365 332.562 440.509 333.669 444.732 333.913C444.69 335.142 444.705 336.368 444.821 337.574C445.805 347.913 452.159 361.831 464.602 360.961C466.756 360.81 468.599 359.231 468.599 356.962C468.599 354.915 466.767 352.812 464.602 352.965C458.151 353.415 454.568 346.15 453.345 340.699C452.818 338.346 452.59 335.858 452.726 333.406C456.746 332.69 460.681 331.327 464.286 329.534C468.808 327.287 473.46 323.551 473.966 318.146C474.181 315.856 473.363 313.51 471.652 311.934C469.208 309.685 465.904 309.394 462.767 309.953" fill="#ED6389" blush:i="0.0.1"/><path id="Fill 5" fill-rule="evenodd" clip-rule="evenodd" d="M806.813 275.256C809.604 269.452 814.618 264.179 821.546 264.289C823.744 264.322 827.841 265.238 828.258 267.899C828.637 270.321 826.257 273.667 824.73 275.384C821.176 279.381 815.896 282.031 810.649 282.436C808.544 282.597 806.493 282.441 804.534 281.982C805.046 279.643 805.797 277.368 806.813 275.256M831.863 311.471C826.559 314.082 820.118 313.207 815.083 310.386C809.4 307.198 805.903 301.691 804.488 295.433C804.093 293.692 803.873 291.891 803.803 290.073C805.343 290.375 806.931 290.543 808.564 290.557C816.358 290.62 824.305 287.41 829.743 281.829C832.555 278.945 834.957 275.22 835.927 271.28C837.237 265.97 834.822 261.083 830.074 258.435C821.526 253.672 810.651 257.134 804.513 264.144C800.979 268.182 798.55 273.131 797.149 278.356C796.545 277.865 795.957 277.34 795.397 276.761C791.539 272.777 789.254 267.224 789.087 261.722C788.668 247.971 802.595 237.09 816.034 239.125C818.19 239.452 820.381 238.584 821.008 236.315C821.533 234.411 820.356 231.693 818.184 231.364C801.173 228.79 783.285 240.099 781.197 257.723C779.806 269.469 785.898 281.339 795.794 287.053C795.753 287.927 795.715 288.799 795.73 289.667C795.91 299.86 800.182 309.789 808.623 315.82C816.532 321.47 827.167 322.744 835.943 318.42C840.606 316.123 836.515 309.177 831.863 311.471" fill="#ED6389" blush:i="0.0.2"/><path id="Fill 7" fill-rule="evenodd" clip-rule="evenodd" d="M487.823 438.882C496.974 438.061 504.898 433.437 510.112 425.839C515.116 418.551 516.861 409.069 514.641 400.498C513.62 396.561 511.818 392.522 511.814 388.4C511.814 387.186 511.97 386.121 512.744 385.292C513.984 383.965 516.043 383.917 517.723 384.127C522.594 384.735 526.985 387.601 531.225 389.864C535.956 392.386 540.773 394.481 546.185 394.811C548.464 394.949 550.046 392.847 550.199 390.783C550.746 383.369 548.437 376.272 547.345 369.024C546.38 362.619 547.256 356.382 551.024 351.009C553.934 346.859 559.542 342.701 564.875 344.332C566.436 344.81 567.882 346.228 568.52 347.722C569.266 349.471 569.248 351.071 568.401 352.063C566.992 353.714 566.786 356.137 568.401 357.758C569.845 359.208 572.661 359.418 574.078 357.758C577.797 353.403 577.901 347.243 574.76 342.478C571.157 337.011 564.913 335.068 558.648 336.408C545.158 339.292 537.846 354.433 539.093 367.239C539.719 373.683 541.769 379.974 542.177 386.42C542.269 387.865 538.314 384.542 534.737 382.618C530.785 380.492 526.823 378.226 522.489 376.965C517.994 375.657 512.652 375.39 508.67 378.253C504.883 380.977 503.428 385.47 503.876 390.01C504.298 394.275 505.74 398.258 506.828 402.372C507.803 406.054 507.835 409.852 506.909 413.551C505.109 420.751 500.013 427.282 492.863 429.698C484.576 432.498 475.044 430.445 468.853 424.197C465.205 420.516 459.527 426.21 463.176 429.893C469.533 436.31 478.831 439.689 487.823 438.882Z" fill="#E0BFDB" blush:i="0.0.3"/><path id="Fill 9" fill-rule="evenodd" clip-rule="evenodd" d="M802.715 415.715C799.398 418.913 795.498 421.812 791.623 424.283C785.312 428.307 775.325 431.809 768.962 425.812C763.102 420.291 764.617 409.776 766.762 402.869C767.59 400.206 769.542 396.33 772.552 398.886C776.68 402.393 773.68 409.17 772.167 413.206C771.725 414.385 772.087 415.667 772.837 416.656C772.451 417.003 772.062 417.34 771.685 417.697C767.903 421.283 773.607 427.009 777.379 423.431C784.045 417.11 793.258 411.831 802.511 410.803C803.666 410.675 804.774 410.435 804.941 411.747C805.139 413.274 803.742 414.725 802.715 415.715M811.21 406.282C806.505 399.75 796.206 403.474 790.17 405.892C787.196 407.084 784.353 408.511 781.638 410.145C782.955 405.179 783.269 399.939 780.197 395.498C776.38 389.975 769.168 387.946 763.783 392.539C759.557 396.144 758.3 402.375 757.544 407.619C756.647 413.827 756.632 420.145 759.269 425.954C761.774 431.47 767.096 435.353 772.958 436.511C779.171 437.739 785.26 436.573 790.949 433.917C796.839 431.166 802.073 426.873 807.019 422.692C811.674 418.758 815.325 411.994 811.21 406.282" fill="#E0BFDB" blush:i="0.0.4"/><path id="Fill 11" fill-rule="evenodd" clip-rule="evenodd" d="M247.521 254.106C247.731 254.815 247.881 255.521 248.016 256.245C247.827 255.235 248.001 256.161 248.02 256.41C248.052 256.821 248.069 257.233 248.069 257.646C248.069 257.955 248.062 258.263 248.045 258.571C248.038 258.683 247.95 259.899 248.003 259.265C248.054 258.639 247.901 259.831 247.878 259.951C247.817 260.253 247.749 260.556 247.674 260.856C247.497 261.563 247.262 262.242 247.025 262.928C246.686 263.907 247.391 262.183 246.951 263.122C246.796 263.453 246.642 263.784 246.476 264.108C246.164 264.711 245.825 265.301 245.457 265.871C245.259 266.18 245.048 266.477 244.839 266.777C244.257 267.62 245.121 266.498 244.599 267.085C243.688 268.11 242.764 269.063 241.727 269.961C241.381 270.24 241.405 270.222 241.798 269.909C241.632 270.034 241.464 270.156 241.294 270.275C241.041 270.453 240.782 270.626 240.52 270.791C239.913 271.178 239.283 271.53 238.634 271.841C238.428 271.942 237.554 272.273 238.461 271.933C238.174 272.039 237.891 272.153 237.6 272.25C236.925 272.481 236.234 272.668 235.535 272.809C235.334 272.848 235.134 272.885 234.933 272.917C235.434 272.855 235.534 272.841 235.23 272.876C234.875 272.878 234.514 272.943 234.156 272.957C233.43 272.986 232.705 272.956 231.981 272.886C229.903 272.69 227.913 274.874 228.003 276.902C228.107 279.246 229.755 280.706 231.981 280.917C246.641 282.308 259.378 266.044 255.193 251.972C254.596 249.962 252.376 248.49 250.3 249.167C248.286 249.825 246.88 251.952 247.521 254.106" fill="#E0BFDB" blush:i="0.0.5"/><path id="Fill 13" fill-rule="evenodd" clip-rule="evenodd" d="M576.005 204.931C576.384 205.559 576.729 206.201 577.034 206.869C576.7 206.135 577.113 207.099 577.171 207.261C577.29 207.601 577.399 207.946 577.498 208.293C577.696 208.987 577.84 209.691 577.965 210.401C577.81 209.518 577.988 210.665 577.997 210.773C578.027 211.133 578.048 211.495 578.058 211.855C578.08 212.58 578.062 213.306 578.008 214.029C578.001 214.115 577.869 215.307 577.991 214.415C577.941 214.776 577.877 215.137 577.808 215.494C577.528 216.933 577.111 218.348 576.557 219.703C576.82 219.058 576.449 219.916 576.364 220.091C576.206 220.421 576.039 220.747 575.864 221.07C575.516 221.714 575.138 222.34 574.729 222.947C574.524 223.248 574.315 223.548 574.094 223.839C574.507 223.294 573.927 224.027 573.808 224.166C573.335 224.715 572.835 225.241 572.307 225.737C572.043 225.985 571.766 226.215 571.499 226.458C570.886 227.014 571.915 226.209 571.169 226.72C570.624 227.096 570.081 227.464 569.506 227.791C569.193 227.97 568.87 228.127 568.551 228.296C568.389 228.377 568.227 228.453 568.062 228.528C568.404 228.389 568.445 228.371 568.18 228.475C567.439 228.761 566.686 228.99 565.914 229.181C563.826 229.694 562.575 232.054 563.133 234.091C563.718 236.222 565.936 237.394 568.033 236.879C582.894 233.219 590.776 214.001 582.884 200.902C580.237 196.509 573.346 200.516 576.005 204.931" fill="#E0BFDB" blush:i="0.0.6"/><path id="Fill 15" fill-rule="evenodd" clip-rule="evenodd" d="M366.081 379.12C354.888 389.956 355.334 410.817 367.348 420.87C368.981 422.237 371.27 422.51 372.867 420.87C374.24 419.46 374.509 416.576 372.867 415.201C363.95 407.739 363.289 392.834 371.6 384.788C375.263 381.243 369.736 375.582 366.081 379.12" fill="#FFCC37" blush:i="0.0.7"/><path id="Fill 17" fill-rule="evenodd" clip-rule="evenodd" d="M677.194 417.755C680.256 425.03 680.81 435.118 674.957 441.24C672.482 443.829 669.072 444.918 665.982 442.976C662.964 441.08 661.23 437.296 661.265 433.79C661.318 428.384 664.702 423.494 668.278 419.695C670.363 417.479 672.628 415.442 675.034 413.582C675.863 414.919 676.587 416.315 677.194 417.755M641.903 418.947C642.047 422.752 641.691 426.783 640.223 430.268C638.881 433.456 636.67 436 633.13 436.067C628.913 436.149 625.505 432.401 624.497 428.606C622.143 419.751 628.375 410.294 635.507 405.527C636.782 404.675 638.121 403.913 639.509 403.25C640.849 408.386 641.704 413.642 641.903 418.947M708.68 400.175C704.083 394.681 696.104 394.615 689.759 396.581C685.172 398.001 680.743 400.175 676.614 402.749C674.746 400.843 672.684 399.12 670.439 397.647C662.735 392.595 653.508 391.329 644.743 393.139C643.879 390.827 642.925 388.547 641.872 386.312C639.056 380.343 634.716 374.44 627.531 374.02C624.354 373.834 621.164 374.966 618.979 377.294C615.441 381.06 621.123 386.744 624.672 382.965C627.629 379.817 631.654 384.384 633.135 386.906C634.731 389.626 636.013 392.551 637.11 395.541C637.061 395.564 637.01 395.579 636.961 395.601C625.689 400.514 616.739 411.368 616.034 423.865C615.64 430.869 618.647 437.682 624.626 441.533C630.076 445.045 637.091 444.854 642.183 440.837C651.916 433.158 650.553 417.856 648.62 407.14C648.232 404.99 647.743 402.861 647.18 400.753C651.079 400.038 655.11 400.114 658.997 401.181C663.121 402.314 666.856 404.52 669.968 407.414C664.88 411.38 660.07 415.968 656.829 421.577C653.588 427.185 651.994 434.159 654.381 440.385C656.49 445.882 660.891 450.787 666.957 451.781C680.597 454.019 687.923 438.592 687.43 427.231C687.148 420.787 685.078 414.543 681.663 409.134C682.001 408.936 682.324 408.714 682.665 408.52C687.358 405.861 693.731 402.32 699.339 403.585C701.423 404.054 702.843 405.144 703.667 407.11C704.212 408.409 704.234 409.618 703.428 410.478C699.892 414.245 705.573 419.931 709.121 416.149C713.467 411.519 712.543 404.793 708.68 400.175" fill="#FFCC37" blush:i="0.0.8"/><g id="Group 21" blush:i="0.0.9"><path id="Fill 19" fill-rule="evenodd" clip-rule="evenodd" d="M421.979 506.703C412.94 512.513 411.165 525.993 419.655 533.184C424.027 536.889 429.122 537.859 434.663 536.905C436.518 536.585 439.145 535.556 441.018 536.22C442.836 536.864 442.773 539.455 442.741 541.068C442.628 546.887 441.178 552.407 443.689 557.96C445.846 562.724 450.489 565.493 455.679 564.903C457.747 564.669 459.702 564.116 461.677 563.47C463.522 562.868 465.656 562.088 467.107 562.137C468.056 562.171 466.815 561.868 467.663 562.252C467.019 561.96 468.052 562.686 467.697 562.279C468.133 562.779 468.242 563.027 468.319 563.733C468.598 566.265 467.735 568.845 467.823 571.389C468.027 577.33 471.985 582.673 477.673 584.437C483.614 586.28 489.97 583.424 493.299 578.37C496.158 574.026 489.209 569.981 486.367 574.296C484.629 576.934 480.849 577.764 478.289 575.863C474.982 573.407 475.973 569.581 476.272 566.035C476.676 561.25 475.006 556.373 470.179 554.613C466.573 553.298 462.755 554.651 459.296 555.771C456.735 556.602 453.553 558.087 451.671 555.785C448.798 552.269 450.433 546.633 450.699 542.581C451.03 537.531 449.999 531.882 445.172 529.254C440.557 526.742 435.887 529.034 431.112 529.292C427.366 529.494 423.633 527.094 422.441 523.472C421.266 519.908 422.9 515.681 426.031 513.67C430.37 510.881 426.348 503.894 421.979 506.703" fill="#FFCC37" blush:i="0.0.9.0"/></g><path id="Fill 22" fill-rule="evenodd" clip-rule="evenodd" d="M301.043 495.427C299.737 494.807 298.464 494.122 297.23 493.367C296.598 492.979 295.974 492.574 295.363 492.153C295.074 491.953 294.788 491.749 294.504 491.542C294.346 491.426 294.191 491.309 294.033 491.193C293.46 490.775 294.592 491.639 294.202 491.329C291.904 489.498 289.799 487.461 287.926 485.193C287.299 484.433 286 484 285.058 484C284.063 484 282.875 484.443 282.191 485.193C281.481 485.966 280.955 486.986 281.003 488.07C281.054 489.204 281.47 490.074 282.191 490.946C286.178 495.777 291.3 499.769 296.949 502.454C297.954 502.931 298.969 503.169 300.074 502.863C301.015 502.603 302.035 501.875 302.498 500.995C303.451 499.184 303.09 496.4 301.043 495.427" fill="#FFCC37" blush:i="0.0.10"/><path id="Fill 24" fill-rule="evenodd" clip-rule="evenodd" d="M650.699 186.011C650.56 183.849 648.986 182 646.758 182C644.733 182 642.677 183.838 642.816 186.011C643.417 195.361 643.15 204.737 642.02 214.035C641.782 215.986 643.701 217.764 645.437 217.974C647.192 218.187 649.458 217.096 649.762 215.101C649.868 214.402 649.975 213.703 650.08 213.004C650.143 212.597 650.148 212.193 650.123 211.795C651.035 203.231 651.251 194.611 650.699 186.011" fill="#FFCC37" blush:i="0.0.11"/><path id="Fill 26" fill-rule="evenodd" clip-rule="evenodd" d="M691.862 293.306C687.375 287.704 678.56 286.722 672.948 291.077C670.295 293.133 668.741 296.688 665.908 298.41C663.952 299.599 661.175 299.345 659.33 297.838C657.397 296.26 656.753 293.1 655.746 290.92C654.323 287.847 651.889 285.178 648.515 284.464C644.528 283.619 640.723 285.614 637.99 288.469C635.499 291.071 634.169 294.371 632.067 297.245C630.577 299.282 628.656 300.832 626.395 298.957C623.123 296.25 623.895 290.804 624.229 287.079C624.425 284.882 622.25 283 620.23 283C617.904 283 616.43 284.877 616.232 287.079C615.822 291.66 615.758 296.344 617.74 300.592C619.328 303.997 622.528 306.936 626.187 307.753C630.056 308.616 633.821 307.153 636.582 304.356C639.177 301.73 640.468 298.283 642.653 295.379C643.934 293.673 646.407 291.169 647.965 293.327C649.423 295.343 650.045 298.622 651.534 300.959C655.503 307.177 664.506 309.384 670.601 305.018C672.433 303.705 673.795 302.041 675.204 300.297C676.201 299.062 677.249 297.606 678.727 296.951C681.403 295.763 684.382 296.795 686.208 299.074C687.575 300.782 690.444 300.522 691.862 299.074C693.518 297.387 693.234 295.017 691.862 293.306" fill="#00AFA9" blush:i="0.0.12"/><path id="Fill 28" fill-rule="evenodd" clip-rule="evenodd" d="M723.124 474.074C722.925 476.098 722.527 480.145 722.527 480.145C722.154 483.922 721.987 487.834 724.875 490.758C727.338 493.252 730.939 494.164 734.353 494.223C737.408 494.276 740.548 493.167 743.594 493.65C749.197 494.535 746.755 503.471 746.611 507.38C746.381 513.705 748.553 521.176 755.573 522.748C759.236 523.567 762.734 522.27 765.938 520.583C768.483 519.242 771.335 517.173 774.089 517.084C779.292 516.917 779.316 508.836 774.089 509.003C770.953 509.105 768.133 510.207 765.39 511.657C763.182 512.827 761.039 514.426 758.617 514.89C757.251 515.154 755.993 514.546 755.311 512.801C754.539 510.832 754.615 508.085 754.819 505.793C755.339 499.959 755.931 493.332 751.361 488.818C748.78 486.268 745.107 485.394 741.57 485.525C738.838 485.626 735.976 486.422 733.293 486.101C732.299 485.982 731.019 485.627 730.624 485.075C729.949 484.128 730.438 482.115 730.554 480.926C731.012 476.246 731.476 471.568 731.937 466.89C732.27 463.521 728.326 462.284 725.84 463.4C722.027 465.112 721.111 469.77 722.837 473.242" fill="#00AFA9" blush:i="0.0.13"/><path id="Fill 30" fill-rule="evenodd" clip-rule="evenodd" d="M569.199 94.1132C569.273 94.0709 569.344 94.0301 569.341 94.0216C569.376 94.1146 569.306 94.1315 569.199 94.1132M568.948 97.8797C568.796 100.65 568.474 103.404 567.984 106.132C567.033 111.426 565.564 116.664 563.524 121.635C562.357 124.475 560.25 129.322 556.824 129.885C553.578 130.418 551.293 126.195 549.983 123.797C547.499 119.249 545.384 114.491 543.623 109.61C542.7 107.049 541.873 104.453 541.137 101.831C540.65 100.088 540.012 98.3825 539.995 96.7542C540.37 96.9683 540.753 97.1698 541.116 97.3909C543.126 98.622 544.975 100.045 546.687 101.672C549.412 104.263 551.637 107.238 553.42 110.509C553.173 112.471 553.055 114.451 553.088 116.433C553.178 121.638 561.19 121.655 561.101 116.433C561.094 116.026 561.103 115.621 561.11 115.212C562.714 113.939 562.857 111.867 562.078 110.017C561.964 109.748 561.834 109.486 561.716 109.22C562.131 107.041 562.756 104.901 563.614 102.831C564.506 100.678 565.685 98.6164 566.998 96.7007C567.365 96.1655 568.349 95.3076 568.808 94.6442C568.883 94.909 568.94 95.1231 568.933 95.0809C569.082 95.9852 568.998 96.9697 568.948 97.8797M539.113 96.226C538.838 96.2838 538.742 96.05 539.113 96.226ZM540.187 95.4893C540.185 95.495 540.176 95.4992 540.172 95.5077C540.172 95.5006 540.174 95.4893 540.174 95.4865C540.254 95.2048 540.26 95.2062 540.187 95.4893M575.406 89.679C573.375 86.2647 569.234 85.0223 565.698 86.8239C562.481 88.462 560.229 92.0961 558.485 95.1583C557.586 96.7373 556.8 98.3755 556.121 100.059C554.758 98.3614 553.272 96.7669 551.669 95.3133C547.718 91.7271 539.952 85.0124 534.686 89.7213C530.035 93.8822 532.52 101.105 534.033 106.123C536.095 112.967 538.803 119.642 542.066 125.99C544.846 131.399 548.638 137.217 555.173 137.935C561.361 138.615 566.205 133.845 568.997 128.771C572.298 122.776 574.303 115.732 575.573 109.026C576.27 105.352 576.751 101.614 576.961 97.8797C577.116 95.1119 576.85 92.1074 575.406 89.679" fill="#00AFA9" blush:i="0.0.14"/><path id="Fill 32" fill-rule="evenodd" clip-rule="evenodd" d="M371.132 472.662C370.749 473.077 370.354 473.477 369.931 473.851C369.928 473.853 369.13 474.494 369.562 474.169C370 473.838 369.247 474.38 369.161 474.439C368.7 474.75 368.223 475.037 367.733 475.299C367.439 475.456 367.134 475.589 366.837 475.743C367.149 475.582 367.287 475.569 366.882 475.721C365.833 476.109 364.77 476.43 363.67 476.636C363.501 476.668 362.432 476.761 363.417 476.69C363.195 476.705 362.972 476.737 362.749 476.754C362.134 476.803 361.518 476.821 360.901 476.81C360.341 476.8 359.782 476.715 359.225 476.705C358.627 476.694 360.164 476.887 359.135 476.691C358.859 476.64 358.585 476.591 358.311 476.531C357.765 476.414 357.225 476.27 356.692 476.103C356.426 476.02 356.162 475.93 355.9 475.835C355.798 475.798 354.944 475.438 355.453 475.666C355.965 475.899 355.03 475.454 355.029 475.452C354.781 475.328 354.535 475.195 354.294 475.058C353.809 474.783 353.347 474.479 352.888 474.162C352.573 473.942 352.358 473.721 352.78 474.089C352.569 473.905 352.355 473.725 352.15 473.534C351.696 473.11 351.275 472.659 350.87 472.188C349.434 470.515 346.622 470.696 345.152 472.188C343.52 473.845 343.715 476.314 345.152 477.989C353.047 487.188 368.675 487.323 376.848 478.463C378.34 476.847 378.427 474.265 376.848 472.662C375.339 471.131 372.629 471.037 371.132 472.662" fill="#00AFA9" blush:i="0.0.15"/><path id="Fill 34" fill-rule="evenodd" clip-rule="evenodd" d="M358.789 185.818C354.933 176.445 342.245 175.373 336.219 183.289C333.158 187.308 332.346 192.549 333.403 197.414C333.833 199.397 334.615 201.325 334.903 203.337C335.102 204.732 335.326 205.313 334.053 205.588C332.181 205.991 329.958 205.31 328.015 205.531C325.4 205.826 323.033 206.953 321.25 208.911C317.834 212.663 317.19 217.847 318.085 222.652C318.552 225.148 319.461 227.527 320.231 229.939C320.453 230.635 320.635 232.646 321.142 233.189C321.276 233.334 320.556 234.595 321.491 232.808C321.595 232.718 321.716 232.672 321.853 232.669C321.567 232.771 321.275 232.851 320.977 232.91C319.771 233.145 317.542 232.924 315.958 233.035C313.416 233.213 310.998 234.008 308.928 235.504C304.388 238.791 301.834 244.587 303.524 250.093C305.232 255.665 309.967 259.24 315.649 259.977C317.805 260.256 319.667 257.941 319.667 255.983C319.667 253.593 317.811 252.268 315.649 251.988C313.132 251.662 310.934 248.812 311.032 246.363C311.135 243.759 313.38 241.397 315.958 241.023C319.609 240.493 323.296 241.55 326.464 239.051C330.585 235.8 328.932 230.685 327.544 226.496C326.454 223.205 324.82 219.3 326.182 215.901C327.599 212.367 330.76 213.711 333.991 213.558C338.561 213.344 342.311 210.508 342.901 205.879C343.401 201.953 341.587 198.524 341.036 194.743C340.593 191.706 341.668 187.758 344.656 186.324C346.597 185.393 350.235 185.985 351.042 187.942C351.862 189.939 353.711 191.352 355.982 190.732C357.883 190.214 359.615 187.828 358.789 185.818" fill="#FFCC37" blush:i="0.0.16"/><path id="Fill 36" fill-rule="evenodd" clip-rule="evenodd" d="M387.293 87.1511C381.903 93.8422 376.512 100.535 371.123 107.226C369.823 108.839 369.44 111.293 371.123 112.849C372.564 114.181 375.317 114.574 376.707 112.849C382.098 106.156 387.487 99.4654 392.878 92.7729C394.176 91.1613 394.56 88.706 392.878 87.1511C391.436 85.819 388.682 85.4261 387.293 87.1511" fill="#F06647" blush:i="0.0.17"/><path id="Fill 38" fill-rule="evenodd" clip-rule="evenodd" d="M680.991 136.429C670.698 129.146 660.404 121.864 650.111 114.58C648.32 113.314 645.591 114.265 644.552 116.034C643.36 118.063 644.215 120.302 646.009 121.571C656.303 128.854 666.596 136.136 676.889 143.42C678.68 144.686 681.411 143.735 682.448 141.968C683.64 139.937 682.785 137.698 680.991 136.429" fill="#F06647" blush:i="0.0.18"/><path id="Fill 40" fill-rule="evenodd" clip-rule="evenodd" d="M512.766 471.126C509.75 470.686 507.019 471.372 504.861 473.556C503.05 475.386 501.976 478.027 502 480.566C502.03 483.526 503.614 486.11 506.218 487.596C507.387 488.263 508.741 488.663 510.046 488.994C510.654 489.148 511.268 489.28 511.87 489.456C512.555 489.659 512.597 489.609 512.94 489.901C513.007 489.957 512.646 489.646 512.72 489.642C512.796 489.767 512.873 489.891 512.95 490.016L512.846 489.803C513.175 489.746 512.243 488.967 512.823 489.842C512.709 489.669 513.112 489.091 512.74 489.871C513 489.326 512.382 490.388 512.278 490.538C512.149 490.721 511.654 491.293 511.268 491.706C509.426 493.681 507.273 495.524 505.899 497.866C502.766 503.205 504.432 510.323 509.504 513.909C515.292 518.004 523.821 515.766 527.39 509.96C530.105 505.544 523.032 501.525 520.322 505.931C519.421 507.397 517.737 508.144 515.921 508.014C514.529 507.914 513.192 506.825 512.703 505.263C512.145 503.473 512.542 502.187 513.911 500.628C515.749 498.532 517.929 496.726 519.471 494.387C521.128 491.875 521.588 488.658 520.018 485.986C518.419 483.268 515.651 482.147 512.683 481.408C512.074 481.257 511.449 481.128 510.857 480.921C510.713 480.87 509.978 480.463 510.299 480.736C509.967 480.399 509.945 480.395 510.234 480.724C510.011 480.317 510.005 480.317 510.219 480.724C510.113 480.264 510.103 480.271 510.189 480.745C510.177 480.506 510.182 480.266 510.203 480.027C509.833 481.174 510.697 478.927 510.243 479.918C510.318 479.755 511.13 478.592 510.649 479.199C510.999 478.89 510.996 478.859 510.642 479.113C510.837 478.976 511.043 478.855 511.258 478.751C510.827 478.927 510.838 478.949 511.291 478.817C511.057 478.915 510.824 478.917 510.59 478.824C512.773 479.142 514.99 478.29 515.625 476.036C516.156 474.152 514.966 471.447 512.766 471.126" fill="#41AFE4" blush:i="0.0.19"/><path id="Fill 42" fill-rule="evenodd" clip-rule="evenodd" d="M439.289 180.597C444.628 181.991 450.508 179.693 453.379 174.83C456.252 169.965 455.175 163.222 451.189 159.326C447.107 155.337 441.514 155.429 436.256 155.855C433.934 156.044 431.484 156.339 429.357 155.634C427.795 155.114 426.708 153.884 426.232 152.374C424.937 148.259 428.341 144.291 432.7 144.116C437.806 143.913 437.832 135.799 432.7 136.004C427.329 136.22 421.932 139.127 419.457 144.15C416.97 149.199 417.728 155.233 421.266 159.555C424.843 163.925 430.536 164.412 435.724 164.01C437.993 163.833 440.59 163.44 442.749 163.815C444.497 164.12 445.877 164.924 446.633 166.599C448.184 170.035 445.015 173.718 441.405 172.776C436.439 171.479 434.322 179.301 439.289 180.597" fill="#E0BFDB" blush:i="0.0.20"/><path id="Fill 44" fill-rule="evenodd" clip-rule="evenodd" d="M283.802 357.831C283.347 357.682 283.891 357.867 283.987 357.945C283.55 357.599 284.057 358.071 284.101 358.125C283.816 357.775 284.631 358.969 284.706 359.097C285.314 360.155 285.81 361.277 286.481 362.301C288.382 365.193 291.262 367.212 294.886 366.982C298.58 366.747 301.732 364.306 303.691 361.333C305.797 358.134 305.885 354.277 306.576 350.651C306.921 348.835 307.87 344.999 310.432 345.111C310.047 345.095 310.73 345.477 310.761 345.519C311.506 346.5 311.978 347.696 312.508 348.796C313.691 351.249 315.302 353.575 318.043 354.459C322.09 355.767 325.591 353.212 327.938 350.207C333.133 343.549 334.935 335.135 333.552 326.917C333.192 324.785 330.517 323.597 328.565 324.125C326.272 324.746 325.374 326.904 325.734 329.041C326.679 334.65 325.109 340.726 321.64 345.257C321.365 345.618 320.246 346.473 320.165 346.829C320.093 347.148 320.055 346.653 320.097 346.862C320.079 346.772 320.523 346.855 320.547 346.859C321.4 347.019 320.536 346.833 320.535 346.833C320.776 346.841 320.958 347.4 320.544 346.744C320.898 347.307 320.158 346.049 320.083 345.912C318.981 343.881 318.212 341.751 316.612 340.013C311.865 334.857 304.428 337.589 300.956 342.67C299.094 345.395 298.718 348.724 298.238 351.888C297.868 354.326 297.548 357.459 295.086 358.772C294.378 359.149 294.255 359.086 293.948 358.837C293.449 358.43 292.845 357.191 292.356 356.271C290.868 353.469 289.115 351.158 285.957 350.122C280.996 348.496 278.868 356.212 283.802 357.831" fill="#41AFE4" blush:i="0.0.21"/><path id="Fill 46" fill-rule="evenodd" clip-rule="evenodd" d="M480.161 228.814C482.515 230.758 484.705 232.894 486.694 235.208C487.165 235.755 487.622 236.314 488.073 236.879C488.597 237.533 487.665 236.339 487.963 236.736C488.083 236.896 488.206 237.055 488.326 237.215C488.542 237.504 488.755 237.796 488.965 238.089C489.877 239.361 490.728 240.672 491.525 242.018C492.592 243.818 495.192 244.622 497.02 243.45C498.843 242.282 499.602 239.914 498.46 237.987C495.146 232.394 490.865 227.319 485.841 223.169C485.001 222.475 484.13 222 483.002 222C482.016 222 480.84 222.433 480.161 223.169C478.801 224.642 478.435 227.39 480.161 228.814" fill="#41AFE4" blush:i="0.0.22"/><path id="Fill 48" fill-rule="evenodd" clip-rule="evenodd" d="M719.594 210.296C717.326 208.987 715.602 206.8 715.157 204.376C719.604 205 723.754 207.373 726.347 211.049C724.111 211.659 721.748 211.54 719.594 210.296M742.065 179.935C741.301 177.918 739.365 176.535 737.145 177.145C735.209 177.676 733.582 180.029 734.352 182.058C737.289 189.808 738.741 200.147 732.995 206.728C728.26 199.851 719.857 195.583 711.434 196.277C709.627 196.427 708.113 197.42 707.579 199.209C705.614 205.778 708.86 212.396 714.194 216.292C718.571 219.491 723.99 220.051 728.992 218.567C729.308 223.684 727.022 228.863 723.082 232.214C721.438 233.613 721.641 236.422 723.082 237.861C724.713 239.489 727.09 239.266 728.74 237.861C735.343 232.244 738.268 222.899 736.407 214.515C740.069 211.401 742.745 207.067 743.996 202.489C746.032 195.032 744.762 187.049 742.065 179.935" fill="#41AFE4" blush:i="0.0.23"/><path id="Fill 50" fill-rule="evenodd" clip-rule="evenodd" d="M746.111 316.993C746.091 317.61 746.064 318.227 746.016 318.842C745.994 319.115 745.969 319.389 745.942 319.662C745.935 319.731 745.849 320.493 745.893 320.152C745.939 319.781 745.779 320.868 745.783 320.84C745.738 321.112 745.689 321.382 745.639 321.65C745.536 322.188 745.421 322.726 745.294 323.259C745.024 324.392 744.699 325.511 744.322 326.613C744.121 327.196 743.907 327.773 743.679 328.347C743.836 327.954 743.67 328.375 743.601 328.53C743.461 328.841 743.321 329.155 743.175 329.463C742.18 331.571 740.983 333.567 739.617 335.448C739.218 335.996 739.909 335.083 739.491 335.617C739.322 335.833 739.15 336.045 738.978 336.256C738.586 336.729 738.183 337.193 737.769 337.644C736.939 338.55 736.056 339.403 735.14 340.218C733.539 341.64 733.703 344.407 735.14 345.86C736.73 347.469 739.112 347.288 740.717 345.86C748.871 338.613 753.669 327.937 753.998 316.993C754.062 314.905 752.139 312.909 750.054 313.003C747.864 313.102 746.178 314.757 746.111 316.993" fill="#41AFE4" blush:i="0.0.24"/></g></g></svg>